<?xml version="1.0" standalone="no"?>
<!DOCTYPE svg PUBLIC "-//W3C//DTD SVG 20010904//EN"
 "http://www.w3.org/TR/2001/REC-SVG-20010904/DTD/svg10.dtd">
<svg version="1.0" xmlns="http://www.w3.org/2000/svg"
 width="600.000000pt" height="159.000000pt" viewBox="0 0 600.000000 159.000000"
 preserveAspectRatio="xMidYMid meet">
<g transform="translate(0.000000,159.000000) scale(0.100000,-0.100000)"
fill="#000000" stroke="none">
<path d="M3269 1226 c-101 -77 -325 -362 -445 -566 -38 -65 -38 -65 -45 -35
-4 17 -7 53 -8 81 -1 43 4 57 29 89 32 40 39 75 17 75 -21 0 -44 -31 -56 -75
-9 -31 -25 -51 -74 -89 -127 -100 -367 -192 -367 -142 0 10 18 43 40 73 88
123 44 145 -312 159 -130 5 -181 10 -189 20 -24 30 -119 29 -119 -1 0 -16 21
-24 78 -27 51 -2 56 -8 41 -42 -26 -57 -188 -136 -286 -139 -54 -2 -71 13 -49
44 24 35 21 57 -4 34 -11 -10 -20 -26 -20 -35 0 -9 -13 -29 -30 -45 -16 -16
-30 -25 -30 -20 0 4 -10 -3 -23 -17 -33 -35 -116 -55 -154 -36 -25 12 -28 18
-28 65 1 39 7 58 28 86 35 47 89 79 142 85 38 4 45 1 60 -22 17 -25 17 -29 -3
-89 -24 -74 -20 -87 8 -26 56 124 -14 193 -135 132 -68 -35 -125 -113 -125
-173 0 -66 77 -99 157 -69 23 8 19 0 -30 -48 -141 -144 -302 -189 -358 -100
-44 70 -9 244 94 469 39 86 41 89 106 125 82 46 171 132 171 166 0 62 -69 58
-136 -8 -23 -24 -57 -75 -76 -114 l-33 -70 -130 -60 c-71 -32 -175 -78 -230
-101 -55 -23 -122 -53 -148 -67 -27 -13 -51 -23 -53 -21 -2 2 6 56 17 119 28
159 26 439 -2 439 -5 0 -6 -12 -2 -27 16 -58 7 -323 -16 -438 -11 -60 -25
-111 -29 -113 -4 -1 -36 -19 -71 -39 -77 -46 -173 -138 -201 -193 -47 -93 -33
-190 27 -190 64 0 198 194 249 361 20 66 -5 50 290 179 110 48 219 97 242 109
23 12 42 19 42 16 0 -3 -9 -24 -21 -47 -33 -64 -90 -216 -110 -293 -33 -123
-19 -202 40 -242 88 -59 207 -7 385 168 107 106 121 116 134 102 57 -56 362
76 362 157 0 19 7 20 138 20 151 0 298 -14 337 -32 35 -16 32 -43 -15 -112
-44 -65 -47 -77 -25 -96 43 -36 291 68 398 167 l35 31 6 -60 c4 -32 11 -69 15
-81 6 -15 3 -34 -10 -59 -10 -20 -21 -54 -25 -76 -5 -35 -3 -42 16 -52 48 -26
75 43 51 128 -9 30 -5 42 41 120 102 173 271 397 391 515 84 83 102 86 94 19
-9 -75 -41 -159 -139 -372 -125 -268 -126 -319 -3 -244 33 20 92 56 130 80 85
51 172 79 223 69 21 -3 109 -30 197 -60 88 -30 201 -63 250 -74 296 -65 931
-122 1330 -120 339 2 288 15 -85 21 -376 7 -450 11 -785 49 -349 38 -499 69
-739 150 -129 45 -156 51 -210 47 -73 -5 -140 -34 -269 -117 -106 -69 -133
-76 -122 -33 3 15 45 110 92 212 101 219 128 290 142 366 10 54 3 94 -18 94
-4 0 -28 -15 -52 -34z m-1929 -80 c0 -39 -82 -118 -180 -174 l-41 -23 32 58
c47 85 68 113 103 134 36 22 86 25 86 5z m1471 -314 c-5 -10 -18 -25 -27 -33
-16 -13 -16 -12 0 19 9 17 21 32 27 32 6 0 6 -6 0 -18z m-966 -22 c8 -12 -42
-12 -70 0 -16 7 -11 9 22 9 23 1 45 -3 48 -9z m-1340 -182 c-52 -173 -187
-377 -243 -366 -31 6 -45 54 -32 106 23 92 79 158 210 245 64 43 74 45 65 15z
m2283 -145 c-2 -46 -7 -59 -20 -61 -22 -4 -24 22 -6 79 16 57 29 48 26 -18z"/>
<path d="M1086 1003 c-6 -14 -5 -15 5 -6 7 7 10 15 7 18 -3 3 -9 -2 -12 -12z"/>
<path d="M1240 976 c0 -2 8 -10 18 -17 15 -13 16 -12 3 4 -13 16 -21 21 -21
13z"/>
<path d="M1686 852 c-3 -5 1 -9 9 -9 8 0 12 4 9 9 -3 4 -7 8 -9 8 -2 0 -6 -4
-9 -8z"/>
<path d="M2646 762 c-3 -5 1 -9 9 -9 8 0 12 4 9 9 -3 4 -7 8 -9 8 -2 0 -6 -4
-9 -8z"/>
<path d="M2669 733 c-13 -16 -12 -17 4 -4 16 13 21 21 13 21 -2 0 -10 -8 -17
-17z"/>
<path d="M1896 663 c-6 -14 -5 -15 5 -6 7 7 10 15 7 18 -3 3 -9 -2 -12 -12z"/>
<path d="M610 656 c0 -2 8 -10 18 -17 15 -13 16 -12 3 4 -13 16 -21 21 -21 13z"/>
<path d="M1720 596 c0 -2 8 -10 18 -17 15 -13 16 -12 3 4 -13 16 -21 21 -21
13z"/>
<path d="M253 535 c0 -8 4 -12 9 -9 5 3 6 10 3 15 -9 13 -12 11 -12 -6z"/>
<path d="M3071 494 c0 -11 3 -14 6 -6 3 7 2 16 -1 19 -3 4 -6 -2 -5 -13z"/>
<path d="M1343 405 c0 -8 4 -12 9 -9 5 3 6 10 3 15 -9 13 -12 11 -12 -6z"/>
</g>
</svg>
